<?xml version="1.0" standalone="no"?>
<!DOCTYPE svg PUBLIC "-//W3C//DTD SVG 20010904//EN"
 "http://www.w3.org/TR/2001/REC-SVG-20010904/DTD/svg10.dtd">
<svg version="1.0" xmlns="http://www.w3.org/2000/svg"
 width="180.000000pt" height="180.000000pt" viewBox="0 0 180.000000 180.000000"
 preserveAspectRatio="xMidYMid meet">

<g transform="translate(0.000000,180.000000) scale(0.100000,-0.100000)"
fill="#000000" stroke="none">
<path d="M788 1249 c-48 -28 -128 -233 -128 -328 0 -41 -5 -49 -54 -97 -94
-91 -202 -129 -294 -104 -58 15 -82 41 -82 88 l0 37 112 44 c130 52 191 99
209 163 30 112 -47 187 -180 175 -81 -7 -142 -37 -204 -99 -91 -92 -137 -208
-137 -343 1 -158 79 -228 255 -228 141 1 234 33 316 110 l49 46 1 -49 c0 -75
19 -118 50 -122 33 -4 109 31 139 63 l23 25 -18 75 c-23 97 -16 164 24 243 43
86 86 132 122 132 44 0 50 -22 38 -147 -5 -59 -11 -157 -12 -218 -2 -127 11
-168 55 -173 27 -3 98 27 131 56 19 17 22 67 6 109 -23 60 -15 124 25 205 43
87 74 121 111 121 52 0 60 -22 45 -115 -7 -46 -15 -122 -17 -170 -4 -76 -2
-94 17 -133 24 -51 46 -60 115 -53 80 9 184 82 235 163 35 57 46 155 17 155
-6 0 -48 -36 -93 -80 -121 -119 -144 -110 -103 40 11 41 23 113 25 160 5 74 3
89 -16 118 -53 86 -211 81 -305 -9 l-31 -29 -12 45 c-9 34 -21 51 -50 70 -73
48 -144 45 -215 -9 l-44 -33 -18 34 c-20 36 -60 73 -79 73 -6 0 -19 -5 -28
-11z m-408 -155 c24 -27 0 -66 -70 -112 -35 -24 -66 -39 -68 -33 -6 17 27 107
49 135 23 30 69 35 89 10z"/>
</g>
</svg>
